<?xml version="1.0" encoding="UTF-8" standalone="no"?>
<!-- Created with Inkscape (http://www.inkscape.org/) -->

<svg
   xmlns:dc="http://purl.org/dc/elements/1.1/"
   xmlns:cc="http://creativecommons.org/ns#"
   xmlns:rdf="http://www.w3.org/1999/02/22-rdf-syntax-ns#"
   xmlns:svg="http://www.w3.org/2000/svg"
   xmlns="http://www.w3.org/2000/svg"
   xmlns:xlink="http://www.w3.org/1999/xlink"
   xmlns:sodipodi="http://sodipodi.sourceforge.net/DTD/sodipodi-0.dtd"
   xmlns:inkscape="http://www.inkscape.org/namespaces/inkscape"
   width="64px"
   height="64px"
   id="svg5881"
   version="1.1"
   inkscape:version="0.48.5 r10040"
   sodipodi:docname="Bitmap Heap Scan.svg">
  <defs
     id="defs5883" />
  <sodipodi:namedview
     id="base"
     pagecolor="#ffffff"
     bordercolor="#666666"
     borderopacity="1.0"
     inkscape:pageopacity="0.0"
     inkscape:pageshadow="2"
     inkscape:zoom="10.24"
     inkscape:cx="21.399616"
     inkscape:cy="32.476604"
     inkscape:current-layer="layer1"
     showgrid="false"
     inkscape:document-units="px"
     inkscape:grid-bbox="true"
     inkscape:window-width="1678"
     inkscape:window-height="1005"
     inkscape:window-x="0"
     inkscape:window-y="0"
     inkscape:window-maximized="0">
    <inkscape:grid
       type="xygrid"
       id="grid5889"
       empspacing="4"
       visible="true"
       enabled="true"
       snapvisiblegridlinesonly="true"
       dotted="true" />
  </sodipodi:namedview>
  <metadata
     id="metadata5886">
    <rdf:RDF>
      <cc:Work
         rdf:about="">
        <dc:format>image/svg+xml</dc:format>
        <dc:type
           rdf:resource="http://purl.org/dc/dcmitype/StillImage" />
        <dc:title></dc:title>
      </cc:Work>
    </rdf:RDF>
  </metadata>
  <g
     id="layer1"
     inkscape:label="Layer 1"
     inkscape:groupmode="layer">
    <rect
       style="opacity:1;fill:#808080;fill-opacity:1;stroke:none"
       id="rect6401"
       width="64"
       height="64"
       x="0"
       y="0"
       ry="8" />
    <path
       style="fill:#ffffff;fill-opacity:1;stroke:none"
       d="M 10,56 16,52 12,52 12,8 8,8 8,52 4,52 z"
       id="path6471"
       inkscape:connector-curvature="0"
       sodipodi:nodetypes="cccccccc" />
    <path
       sodipodi:nodetypes="cccccccc"
       inkscape:connector-curvature="0"
       id="path6521"
       d="m 39,12 -3,-3 0,2 -4,0 0,2 4,0 0,2 z"
       style="fill:#ffffff;fill-opacity:1;stroke:none" />
    <use
       x="0"
       y="0"
       xlink:href="#path6521"
       id="use6523"
       transform="translate(0,10)"
       width="64"
       height="64" />
    <use
       x="0"
       y="0"
       xlink:href="#path6521"
       id="use6525"
       transform="translate(0,20)"
       width="64"
       height="64" />
    <use
       x="0"
       y="0"
       xlink:href="#path6521"
       id="use6527"
       transform="translate(0,30)"
       width="64"
       height="64" />
    <use
       x="0"
       y="0"
       xlink:href="#path6521"
       id="use6529"
       transform="translate(0,40)"
       width="64"
       height="64" />
    <rect
       ry="2"
       y="8"
       x="40"
       height="8"
       width="8"
       id="use6459"
       style="fill:#ffffff;fill-opacity:1;stroke:none" />
    <use
       x="0"
       y="0"
       xlink:href="#use6459"
       id="use7890"
       transform="translate(10,0)"
       width="64"
       height="64" />
    <use
       x="0"
       y="0"
       xlink:href="#use6459"
       id="use4272"
       transform="translate(0,10)"
       width="64"
       height="64" />
    <use
       x="0"
       y="0"
       xlink:href="#use7890"
       id="use4274"
       transform="translate(0,10)"
       width="64"
       height="64" />
    <use
       x="0"
       y="0"
       xlink:href="#use6459"
       id="use4292"
       transform="translate(0,30)"
       width="64"
       height="64" />
    <use
       x="0"
       y="0"
       xlink:href="#use7890"
       id="use4294"
       transform="translate(0,30)"
       width="64"
       height="64" />
    <path
       style="fill:#ffffff;fill-opacity:1;stroke:none"
       d="M 20 8 C 18.892 8 18 8.892 18 10 L 18 14 C 18 15.108 18.892 16 20 16 L 28 16 C 29.108 16 30 15.108 30 14 L 30 10 C 30 8.892 29.108 8 28 8 L 20 8 z M 24 8.78125 L 25.125 8.78125 L 25.125 15.21875 L 23.75 15.21875 L 23.75 11.5 L 23.75 11.21875 C 23.752927 11.110356 23.747068 10.989262 23.75 10.875 C 23.755857 10.757817 23.778318 10.648442 23.78125 10.53125 C 23.787107 10.414067 23.778318 10.315435 23.78125 10.21875 C 23.766599 10.236333 23.753904 10.246099 23.71875 10.28125 L 23.59375 10.40625 C 23.549803 10.44727 23.515623 10.487309 23.46875 10.53125 C 23.421873 10.5752 23.356443 10.621098 23.3125 10.65625 L 22.59375 11.25 L 21.9375 10.4375 L 24 8.78125 z "
       id="use6459-1" />
    <use
       x="0"
       y="0"
       xlink:href="#use6459-1"
       id="use4272-2"
       transform="translate(-4.7683716e-7,9.9999988)"
       width="64"
       height="64" />
    <use
       x="0"
       y="0"
       xlink:href="#use6459-1"
       id="use4292-8"
       transform="translate(-4.7683716e-7,30)"
       width="64"
       height="64" />
    <rect
       inkscape:tile-y0="9"
       inkscape:tile-x0="15"
       inkscape:tile-h="6"
       inkscape:tile-w="10"
       inkscape:tile-cy="12"
       inkscape:tile-cx="20"
       style="fill:none;stroke:#ffffff;stroke-width:2;stroke-miterlimit:4;stroke-opacity:1;stroke-dasharray:none"
       id="rect4892"
       width="6"
       height="6"
       x="41"
       y="29"
       ry="1" />
    <use
       x="0"
       y="0"
       xlink:href="#rect4892"
       id="use4894"
       transform="translate(10,0)"
       width="64"
       height="64" />
    <use
       x="0"
       y="0"
       xlink:href="#rect4892"
       id="use4896"
       transform="translate(0,20)"
       width="64"
       height="64" />
    <use
       x="0"
       y="0"
       xlink:href="#use4894"
       id="use4898"
       transform="translate(0,20)"
       width="64"
       height="64" />
    <text
       xml:space="preserve"
       style="font-size:11px;font-style:normal;font-variant:normal;font-weight:bold;font-stretch:normal;text-align:center;line-height:125%;letter-spacing:0px;word-spacing:0px;text-anchor:middle;fill:#ffffff;fill-opacity:1;stroke:none;font-family:Droid Sans;-inkscape-font-specification:Droid Sans Bold"
       x="24"
       y="36"
       id="text9235"
       sodipodi:linespacing="125%"><tspan
         sodipodi:role="line"
         id="tspan9237"
         x="24"
         y="36">0</tspan></text>
    <use
       x="0"
       y="0"
       xlink:href="#text9235"
       id="use8814"
       transform="translate(0,20)"
       width="64"
       height="64" />
  </g>
</svg>
