<?xml version="1.0" encoding="UTF-8" standalone="no"?>
<!-- Created with Inkscape (http://www.inkscape.org/) -->

<svg
   xmlns:dc="http://purl.org/dc/elements/1.1/"
   xmlns:cc="http://creativecommons.org/ns#"
   xmlns:rdf="http://www.w3.org/1999/02/22-rdf-syntax-ns#"
   xmlns:svg="http://www.w3.org/2000/svg"
   xmlns="http://www.w3.org/2000/svg"
   xmlns:xlink="http://www.w3.org/1999/xlink"
   xmlns:sodipodi="http://sodipodi.sourceforge.net/DTD/sodipodi-0.dtd"
   xmlns:inkscape="http://www.inkscape.org/namespaces/inkscape"
   width="64px"
   height="64px"
   id="svg5881"
   version="1.1"
   inkscape:version="0.48.5 r10040"
   sodipodi:docname="Hash Join.svg">
  <defs
     id="defs5883" />
  <sodipodi:namedview
     id="base"
     pagecolor="#ffffff"
     bordercolor="#666666"
     borderopacity="1.0"
     inkscape:pageopacity="0.0"
     inkscape:pageshadow="2"
     inkscape:zoom="11.313708"
     inkscape:cx="32.386779"
     inkscape:cy="32.425718"
     inkscape:current-layer="layer1"
     showgrid="false"
     inkscape:document-units="px"
     inkscape:grid-bbox="true"
     inkscape:window-width="1678"
     inkscape:window-height="1005"
     inkscape:window-x="0"
     inkscape:window-y="0"
     inkscape:window-maximized="0">
    <inkscape:grid
       type="xygrid"
       id="grid5889"
       empspacing="4"
       visible="true"
       enabled="true"
       snapvisiblegridlinesonly="true"
       dotted="true" />
  </sodipodi:namedview>
  <metadata
     id="metadata5886">
    <rdf:RDF>
      <cc:Work
         rdf:about="">
        <dc:format>image/svg+xml</dc:format>
        <dc:type
           rdf:resource="http://purl.org/dc/dcmitype/StillImage" />
        <dc:title />
      </cc:Work>
    </rdf:RDF>
  </metadata>
  <g
     id="layer1"
     inkscape:label="Layer 1"
     inkscape:groupmode="layer">
    <rect
       style="opacity:1;fill:#808080;fill-opacity:1;stroke:none"
       id="rect6401"
       width="64"
       height="64"
       x="0"
       y="0"
       ry="8" />
    <text
       xml:space="preserve"
       style="font-size:48px;font-style:normal;font-variant:normal;font-weight:normal;font-stretch:normal;text-align:center;line-height:125%;letter-spacing:0px;word-spacing:0px;text-anchor:middle;fill:#ffffff;fill-opacity:1;stroke:none;font-family:Droid Sans;-inkscape-font-specification:Droid Sans"
       x="53"
       y="-18.664062"
       id="text8888"
       sodipodi:linespacing="125%"
       transform="matrix(0,1,-1,0,0,0)"><tspan
         sodipodi:role="line"
         id="tspan8890"
         x="53"
         y="-18.664062">}</tspan></text>
    <path
       style="fill:#ffffff;fill-opacity:1;stroke:none"
       d="m 46,6 c -1.108,0 -2,0.892 -2,2 l 0,4 c 0,1.108 0.892,2 2,2 l 1.40625,0 0.375,-2.09375 -1.40625,0 0,-1.21875 1.625,0 0.28125,-1.34375 -1.46875,0 0,-1.25 1.6875,0 L 48.90625,6 46,6 z m 4.1875,0 -0.40625,2.09375 1.15625,0 L 51.34375,6 50.1875,6 z m 2.40625,0 -0.375,2.09375 1.40625,0 0,1.25 -1.65625,0 -0.28125,1.34375 1.53125,0 0,1.21875 -1.75,0 L 51.09375,14 54,14 c 1.108,0 2,-0.892 2,-2 L 56,8 C 56,6.892 55.108,6 54,6 l -1.40625,0 z m -3.03125,3.34375 -0.28125,1.34375 1.15625,0 0.28125,-1.34375 -1.15625,0 z m -0.5,2.5625 L 48.65625,14 l 1.125,0 0.40625,-2.09375 -1.125,0 z"
       id="use4244"
       inkscape:connector-curvature="0" />
    <use
       x="0"
       y="0"
       xlink:href="#use4244"
       id="use4278"
       transform="translate(0,10)"
       width="64"
       height="64" />
    <use
       x="0"
       y="0"
       xlink:href="#use4244"
       id="use4288"
       transform="translate(0,20)"
       width="64"
       height="64" />
    <use
       x="0"
       y="0"
       xlink:href="#use4244"
       id="use4298"
       transform="translate(0,30)"
       width="64"
       height="64" />
    <rect
       ry="2"
       y="6"
       x="8"
       height="8"
       width="8"
       id="use6459"
       style="fill:#ffffff;fill-opacity:1;stroke:none" />
    <use
       x="0"
       y="0"
       xlink:href="#use6459"
       id="use7890"
       transform="translate(10,0)"
       width="64"
       height="64" />
    <use
       x="0"
       y="0"
       xlink:href="#use7890"
       id="use7900"
       transform="translate(10,0)"
       width="64"
       height="64" />
    <use
       x="0"
       y="0"
       xlink:href="#use6459"
       id="use4272"
       transform="translate(0,10)"
       width="64"
       height="64" />
    <use
       x="0"
       y="0"
       xlink:href="#use7890"
       id="use4274"
       transform="translate(0,10)"
       width="64"
       height="64" />
    <use
       x="0"
       y="0"
       xlink:href="#use7900"
       id="use4276"
       transform="translate(0,10)"
       width="64"
       height="64" />
    <use
       x="0"
       y="0"
       xlink:href="#use6459"
       id="use4282"
       transform="translate(0,20)"
       width="64"
       height="64" />
    <use
       x="0"
       y="0"
       xlink:href="#use7890"
       id="use4284"
       transform="translate(0,20)"
       width="64"
       height="64" />
    <use
       x="0"
       y="0"
       xlink:href="#use7900"
       id="use4286"
       transform="translate(0,20)"
       width="64"
       height="64" />
    <use
       x="0"
       y="0"
       xlink:href="#use6459"
       id="use4292"
       transform="translate(0,30)"
       width="64"
       height="64" />
    <use
       x="0"
       y="0"
       xlink:href="#use7890"
       id="use4294"
       transform="translate(0,30)"
       width="64"
       height="64" />
    <use
       x="0"
       y="0"
       xlink:href="#use7900"
       id="use4296"
       transform="translate(0,30)"
       width="64"
       height="64" />
  </g>
</svg>
