<?xml version="1.0" encoding="UTF-8" standalone="no"?>
<!-- Created with Inkscape (http://www.inkscape.org/) -->

<svg
   xmlns:dc="http://purl.org/dc/elements/1.1/"
   xmlns:cc="http://creativecommons.org/ns#"
   xmlns:rdf="http://www.w3.org/1999/02/22-rdf-syntax-ns#"
   xmlns:svg="http://www.w3.org/2000/svg"
   xmlns="http://www.w3.org/2000/svg"
   xmlns:xlink="http://www.w3.org/1999/xlink"
   xmlns:sodipodi="http://sodipodi.sourceforge.net/DTD/sodipodi-0.dtd"
   xmlns:inkscape="http://www.inkscape.org/namespaces/inkscape"
   width="64px"
   height="64px"
   id="svg5881"
   version="1.1"
   inkscape:version="0.48.5 r10040"
   sodipodi:docname="Hash Setop Intersect.svg">
  <defs
     id="defs5883" />
  <sodipodi:namedview
     id="base"
     pagecolor="#ffffff"
     bordercolor="#666666"
     borderopacity="1.0"
     inkscape:pageopacity="0.0"
     inkscape:pageshadow="2"
     inkscape:zoom="11.313708"
     inkscape:cx="27.613808"
     inkscape:cy="31.807"
     inkscape:current-layer="layer1"
     showgrid="false"
     inkscape:document-units="px"
     inkscape:grid-bbox="true"
     inkscape:window-width="1678"
     inkscape:window-height="1005"
     inkscape:window-x="0"
     inkscape:window-y="0"
     inkscape:window-maximized="0">
    <inkscape:grid
       type="xygrid"
       id="grid5889"
       empspacing="4"
       visible="true"
       enabled="true"
       snapvisiblegridlinesonly="true"
       dotted="true" />
  </sodipodi:namedview>
  <metadata
     id="metadata5886">
    <rdf:RDF>
      <cc:Work
         rdf:about="">
        <dc:format>image/svg+xml</dc:format>
        <dc:type
           rdf:resource="http://purl.org/dc/dcmitype/StillImage" />
        <dc:title></dc:title>
      </cc:Work>
    </rdf:RDF>
  </metadata>
  <g
     id="layer1"
     inkscape:label="Layer 1"
     inkscape:groupmode="layer">
    <rect
       style="opacity:1;fill:#808080;fill-opacity:1;stroke:none"
       id="rect6401"
       width="64"
       height="64"
       x="0"
       y="0"
       ry="8" />
    <text
       xml:space="preserve"
       style="font-size:36px;font-style:normal;font-variant:normal;font-weight:normal;font-stretch:normal;text-align:center;line-height:125%;letter-spacing:0px;word-spacing:0px;text-anchor:middle;fill:#ffffff;fill-opacity:1;stroke:none;font-family:Droid Sans;-inkscape-font-specification:Droid Sans"
       x="33"
       y="-21.998047"
       id="text8888"
       sodipodi:linespacing="125%"
       transform="matrix(0,1,-1,0,0,0)"><tspan
         sodipodi:role="line"
         id="tspan8890"
         x="33"
         y="-21.998047">}</tspan></text>
    <path
       style="fill:#ffffff;fill-opacity:1;stroke:none"
       d="m 14,8 c -1.108,0 -2,0.892 -2,2 l 0,4 c 0,1.108 0.892,2 2,2 l 1.40625,0 0.375,-2.09375 -1.40625,0 0,-1.21875 1.625,0 0.28125,-1.34375 -1.46875,0 0,-1.25 1.6875,0 L 16.90625,8 14,8 z m 4.1875,0 -0.40625,2.09375 1.15625,0 L 19.34375,8 18.1875,8 z m 2.40625,0 -0.375,2.09375 1.40625,0 0,1.25 -1.65625,0 -0.28125,1.34375 1.53125,0 0,1.21875 -1.75,0 L 19.09375,16 22,16 c 1.108,0 2,-0.892 2,-2 l 0,-4 C 24,8.892 23.108,8 22,8 l -1.40625,0 z m -3.03125,3.34375 -0.28125,1.34375 1.15625,0 0.28125,-1.34375 -1.15625,0 z m -0.5,2.5625 L 16.65625,16 l 1.125,0 0.40625,-2.09375 -1.125,0 z"
       id="use4244"
       inkscape:connector-curvature="0" />
    <use
       x="0"
       y="0"
       xlink:href="#use4244"
       id="use4278"
       transform="translate(0,10)"
       width="64"
       height="64" />
    <use
       x="0"
       y="0"
       xlink:href="#use4244"
       id="use4555"
       transform="translate(28,0)"
       width="64"
       height="64" />
    <use
       x="0"
       y="0"
       xlink:href="#use4278"
       id="use4557"
       transform="translate(28,0)"
       width="64"
       height="64" />
    <path
       sodipodi:type="arc"
       style="fill:#808080;fill-opacity:1;stroke:#ffffff;stroke-width:2;stroke-linecap:square;stroke-miterlimit:4;stroke-opacity:1;stroke-dasharray:none;stroke-dashoffset:0"
       id="path4565"
       sodipodi:cx="16"
       sodipodi:cy="56"
       sodipodi:rx="9"
       sodipodi:ry="9"
       d="M 25,56 A 9,9 0 1 1 7,56 9,9 0 1 1 25,56 z"
       transform="translate(12,-6)" />
    <path
       transform="translate(20,-6)"
       d="M 25,56 A 9,9 0 1 1 7,56 9,9 0 1 1 25,56 z"
       sodipodi:ry="9"
       sodipodi:rx="9"
       sodipodi:cy="56"
       sodipodi:cx="16"
       id="path4567"
       style="fill:none;stroke:#ffffff;stroke-width:2;stroke-linecap:square;stroke-miterlimit:4;stroke-opacity:1;stroke-dasharray:none;stroke-dashoffset:0"
       sodipodi:type="arc" />
    <path
       style="fill:#ffffff;fill-opacity:1;stroke:none;stroke-width:2;stroke-linecap:square;stroke-miterlimit:4;stroke-opacity:1;stroke-dasharray:none;stroke-dashoffset:0"
       d="M 32 41.96875 C 29.044976 43.444406 27 46.472452 27 50 C 27 53.527548 29.044976 56.555594 32 58.03125 C 34.955024 56.555594 37 53.527548 37 50 C 37 46.472452 34.955024 43.444406 32 41.96875 z "
       id="path5082" />
  </g>
</svg>
